<svg xmlns="http://www.w3.org/2000/svg" width="640" height="360" viewBox="0 0 640 360" fill="none"><style>    #som-1{        animation: volume 2s infinite;        opacity: 0;    }    #som-2{        animation: volume 2s 0.3s infinite;        opacity: 0;    }    #som-3{        animation: volume 2s 0.6s infinite;        opacity: 0;    }    @keyframes volume{        0%, 100%{            opacity: 0;        }        33%, 66%{            opacity: 1;        }    }</style><g id="player-thumb-youtube"><rect id="fundo" width="640" height="360" rx="20" fill="#dd0000" fill-opacity="0.7"></rect><g id="play-icon"><path id="volume" fill-rule="evenodd" clip-rule="evenodd" d="M271.582 150.251L271.281 150.496H245.436C243.078 150.496 240.816 151.429 239.148 153.089C237.48 154.748 236.543 157 236.543 159.347V200.649C236.543 202.996 237.48 205.247 239.148 206.907C240.816 208.567 243.078 209.499 245.436 209.499H271.285L305.144 237.086C305.223 237.153 305.304 237.216 305.389 237.274C306.912 238.395 308.756 239 310.65 239C313.009 239 315.271 238.068 316.939 236.408C318.606 234.748 319.543 232.497 319.543 230.15V180.027L271.582 150.251ZM319.543 158.788L286.376 138.196L305.137 122.909C305.215 122.842 305.297 122.78 305.381 122.721C306.706 121.752 308.274 121.167 309.913 121.031C311.551 120.895 313.195 121.214 314.662 121.952C316.129 122.69 317.362 123.819 318.224 125.212C319.086 126.606 319.542 128.209 319.543 129.846V158.788Z" fill="white"></path><path id="som-1" fill-rule="evenodd" clip-rule="evenodd" d="M341.355 193.568C340.529 196.148 339.471 198.725 338.183 201.29C337.723 202.206 337.505 203.225 337.549 204.249C337.593 205.274 337.898 206.27 338.435 207.143C338.972 208.016 339.724 208.737 340.618 209.237C341.512 209.737 342.518 210 343.542 210C344.655 210 345.745 209.691 346.692 209.107C347.639 208.523 348.405 207.686 348.905 206.691C350.005 204.49 350.97 202.276 351.799 200.053L341.355 193.568ZM355.53 181.13L343.059 173.387C342.313 168.426 340.705 163.555 338.202 158.643C337.513 157.227 337.406 155.597 337.905 154.104C338.404 152.61 339.468 151.372 340.869 150.656C342.27 149.941 343.895 149.804 345.395 150.277C346.895 150.749 348.15 151.792 348.89 153.182C353.364 161.967 355.543 170.726 355.543 179.951C355.543 180.344 355.539 180.737 355.53 181.13Z" fill="white"></path><path id="som-2" fill-rule="evenodd" clip-rule="evenodd" d="M362.043 206.412C360.467 210.277 358.544 214.076 356.314 218.087C355.809 218.991 355.543 220.015 355.543 221.059C355.543 222.102 355.809 223.126 356.314 224.03C356.819 224.933 357.545 225.683 358.419 226.204C359.293 226.726 360.285 227 361.294 227C362.304 227.001 363.297 226.727 364.172 226.205C365.047 225.684 365.773 224.933 366.278 224.029C368.427 220.16 370.344 216.407 371.988 212.587L362.043 206.412ZM377.343 194.672L366.632 188.022C366.904 185.345 367.044 182.511 367.044 179.466C367.044 163.063 363.116 152.892 356.328 140.868C355.583 139.508 355.387 137.9 355.782 136.391C356.176 134.883 357.13 133.596 358.436 132.809C359.742 132.022 361.295 131.798 362.759 132.186C364.224 132.574 365.482 133.542 366.261 134.881C373.843 148.313 378.543 160.457 378.543 179.466C378.543 185.043 378.127 190.042 377.343 194.672Z" fill="white"></path><path id="som-3" fill-rule="evenodd" clip-rule="evenodd" d="M382.824 219.314C380.234 225.1 377.086 230.48 373.523 235.863C372.933 236.755 372.598 237.786 372.553 238.849C372.509 239.913 372.757 240.968 373.272 241.904C373.786 242.839 374.547 243.621 375.475 244.166C376.403 244.711 377.463 244.999 378.544 245C379.542 245 380.524 244.755 381.401 244.286C382.279 243.818 383.024 243.142 383.569 242.319C387.327 236.644 390.464 231.148 393.035 225.654L382.824 219.314ZM399.285 208.294L388.519 201.61C389.83 195.198 390.544 188.104 390.544 180.002C390.544 155.443 383.726 139.888 373.485 124.093C373.061 123.438 372.772 122.708 372.635 121.943C372.498 121.178 372.515 120.394 372.685 119.636C372.855 118.878 373.175 118.16 373.627 117.524C374.079 116.888 374.654 116.345 375.319 115.928C375.984 115.51 376.726 115.226 377.502 115.09C378.278 114.955 379.074 114.972 379.844 115.139C380.614 115.307 381.343 115.623 381.989 116.068C382.635 116.513 383.186 117.079 383.61 117.734C394.972 135.276 402.543 152.578 402.543 180.002C402.543 190.303 401.523 199.516 399.285 208.294Z" fill="white"></path><g id="barra-mute"><rect width="232.6" height="7.71993" rx="3.85997" transform="matrix(0.849583 0.527454 0.527454 -0.849583 232.202 119.726)" fill="white"></rect><rect width="232.6" height="7.71993" rx="3.85997" transform="matrix(0.849583 0.527454 0.527454 -0.849583 232.202 119.726)" stroke="#dd0000"></rect></g></g><path id="texto-2" d="M216.007 293.4H213.259C213.097 292.61 212.812 291.915 212.406 291.317C212.007 290.719 211.52 290.216 210.943 289.81C210.375 289.397 209.743 289.086 209.049 288.88C208.355 288.673 207.631 288.569 206.877 288.569C205.503 288.569 204.259 288.916 203.143 289.611C202.036 290.305 201.153 291.328 200.495 292.68C199.845 294.032 199.52 295.69 199.52 297.655C199.52 299.619 199.845 301.278 200.495 302.629C201.153 303.981 202.036 305.004 203.143 305.698C204.259 306.393 205.503 306.74 206.877 306.74C207.631 306.74 208.355 306.636 209.049 306.43C209.743 306.223 210.375 305.916 210.943 305.51C211.52 305.096 212.007 304.59 212.406 303.992C212.812 303.386 213.097 302.692 213.259 301.909H216.007C215.8 303.069 215.423 304.107 214.877 305.022C214.33 305.938 213.651 306.718 212.838 307.36C212.026 307.995 211.113 308.479 210.101 308.812C209.097 309.144 208.022 309.31 206.877 309.31C204.942 309.31 203.221 308.837 201.714 307.892C200.207 306.947 199.022 305.602 198.158 303.859C197.293 302.116 196.861 300.048 196.861 297.655C196.861 295.261 197.293 293.193 198.158 291.45C199.022 289.707 200.207 288.362 201.714 287.417C203.221 286.472 204.942 285.999 206.877 285.999C208.022 285.999 209.097 286.165 210.101 286.497C211.113 286.83 212.026 287.317 212.838 287.96C213.651 288.595 214.33 289.371 214.877 290.287C215.423 291.195 215.8 292.233 216.007 293.4ZM222.707 286.309V309H220.092V286.309H222.707ZM227.496 309V291.982H230.111V309H227.496ZM228.826 289.145C228.316 289.145 227.877 288.972 227.507 288.625C227.145 288.278 226.964 287.86 226.964 287.373C226.964 286.885 227.145 286.468 227.507 286.121C227.877 285.774 228.316 285.6 228.826 285.6C229.336 285.6 229.771 285.774 230.133 286.121C230.503 286.468 230.687 286.885 230.687 287.373C230.687 287.86 230.503 288.278 230.133 288.625C229.771 288.972 229.336 289.145 228.826 289.145ZM246.512 315.382V306.385H246.29C246.098 306.695 245.825 307.087 245.47 307.56C245.116 308.025 244.61 308.442 243.952 308.812C243.295 309.174 242.42 309.355 241.326 309.355C239.908 309.355 238.656 308.996 237.57 308.28C236.485 307.556 235.635 306.537 235.022 305.222C234.409 303.9 234.102 302.337 234.102 300.535C234.102 298.748 234.409 297.197 235.022 295.882C235.635 294.567 236.488 293.551 237.581 292.835C238.675 292.118 239.938 291.76 241.371 291.76C242.479 291.76 243.354 291.945 243.997 292.314C244.647 292.676 245.141 293.09 245.481 293.555C245.828 294.013 246.098 294.39 246.29 294.685H246.6V291.982H249.126V315.382H246.512ZM241.681 307.006C242.73 307.006 243.616 306.732 244.34 306.186C245.064 305.632 245.614 304.867 245.991 303.892C246.368 302.91 246.556 301.776 246.556 300.491C246.556 299.22 246.371 298.109 246.002 297.156C245.633 296.196 245.086 295.45 244.362 294.918C243.638 294.379 242.745 294.109 241.681 294.109C240.573 294.109 239.65 294.393 238.911 294.962C238.18 295.524 237.629 296.288 237.26 297.256C236.898 298.216 236.717 299.294 236.717 300.491C236.717 301.702 236.902 302.803 237.271 303.793C237.648 304.775 238.202 305.558 238.933 306.141C239.672 306.718 240.588 307.006 241.681 307.006ZM264.638 302.042V291.982H267.252V309H264.638V306.119H264.46C264.062 306.984 263.441 307.718 262.599 308.324C261.757 308.922 260.693 309.222 259.408 309.222C258.345 309.222 257.399 308.989 256.572 308.524C255.745 308.051 255.095 307.342 254.622 306.396C254.149 305.443 253.913 304.243 253.913 302.795V291.982H256.527V302.618C256.527 303.859 256.875 304.849 257.569 305.587C258.271 306.326 259.164 306.695 260.25 306.695C260.9 306.695 261.561 306.529 262.233 306.197C262.913 305.864 263.482 305.355 263.94 304.668C264.405 303.981 264.638 303.106 264.638 302.042ZM279.177 309.355C277.537 309.355 276.123 308.993 274.933 308.269C273.752 307.537 272.839 306.518 272.197 305.211C271.562 303.896 271.244 302.367 271.244 300.624C271.244 298.881 271.562 297.344 272.197 296.015C272.839 294.678 273.733 293.636 274.878 292.89C276.03 292.137 277.375 291.76 278.911 291.76C279.797 291.76 280.673 291.908 281.537 292.203C282.401 292.499 283.188 292.979 283.897 293.644C284.606 294.301 285.171 295.173 285.592 296.259C286.013 297.344 286.223 298.681 286.223 300.269V301.377H273.105V299.117H283.564C283.564 298.157 283.372 297.3 282.988 296.547C282.612 295.793 282.072 295.199 281.371 294.763C280.676 294.327 279.856 294.109 278.911 294.109C277.869 294.109 276.968 294.368 276.208 294.885C275.454 295.394 274.874 296.059 274.468 296.879C274.062 297.699 273.859 298.578 273.859 299.516V301.023C273.859 302.308 274.08 303.397 274.523 304.291C274.974 305.178 275.598 305.853 276.396 306.319C277.194 306.777 278.121 307.006 279.177 307.006C279.864 307.006 280.484 306.91 281.038 306.718C281.6 306.518 282.083 306.223 282.49 305.831C282.896 305.432 283.21 304.937 283.431 304.347L285.958 305.056C285.692 305.912 285.245 306.666 284.617 307.316C283.989 307.959 283.213 308.461 282.29 308.823C281.367 309.177 280.329 309.355 279.177 309.355ZM298.976 315.382V291.982H301.502V294.685H301.812C302.004 294.39 302.27 294.013 302.61 293.555C302.957 293.09 303.452 292.676 304.095 292.314C304.745 291.945 305.624 291.76 306.732 291.76C308.165 291.76 309.428 292.118 310.521 292.835C311.614 293.551 312.467 294.567 313.08 295.882C313.693 297.197 314 298.748 314 300.535C314 302.337 313.693 303.9 313.08 305.222C312.467 306.537 311.618 307.556 310.532 308.28C309.446 308.996 308.194 309.355 306.776 309.355C305.683 309.355 304.808 309.174 304.15 308.812C303.493 308.442 302.987 308.025 302.632 307.56C302.278 307.087 302.004 306.695 301.812 306.385H301.591V315.382H298.976ZM301.546 300.491C301.546 301.776 301.735 302.91 302.112 303.892C302.488 304.867 303.038 305.632 303.762 306.186C304.486 306.732 305.373 307.006 306.421 307.006C307.515 307.006 308.427 306.718 309.158 306.141C309.897 305.558 310.451 304.775 310.82 303.793C311.197 302.803 311.385 301.702 311.385 300.491C311.385 299.294 311.2 298.216 310.831 297.256C310.469 296.288 309.919 295.524 309.18 294.962C308.449 294.393 307.529 294.109 306.421 294.109C305.358 294.109 304.464 294.379 303.74 294.918C303.016 295.45 302.47 296.196 302.1 297.156C301.731 298.109 301.546 299.22 301.546 300.491ZM322.996 309.399C321.918 309.399 320.939 309.196 320.06 308.789C319.181 308.376 318.483 307.781 317.966 307.006C317.449 306.223 317.191 305.277 317.191 304.169C317.191 303.194 317.383 302.404 317.767 301.798C318.151 301.185 318.664 300.705 319.307 300.358C319.95 300.011 320.659 299.752 321.434 299.582C322.217 299.405 323.004 299.265 323.794 299.161C324.828 299.028 325.667 298.929 326.309 298.862C326.959 298.788 327.432 298.666 327.727 298.497C328.03 298.327 328.182 298.031 328.182 297.61V297.522C328.182 296.428 327.883 295.579 327.284 294.973C326.693 294.368 325.796 294.065 324.592 294.065C323.344 294.065 322.365 294.338 321.656 294.885C320.947 295.431 320.448 296.015 320.16 296.635L317.678 295.749C318.121 294.715 318.712 293.91 319.451 293.334C320.197 292.75 321.01 292.344 321.888 292.115C322.775 291.878 323.646 291.76 324.503 291.76C325.05 291.76 325.678 291.827 326.387 291.96C327.103 292.085 327.794 292.347 328.459 292.746C329.131 293.145 329.688 293.747 330.132 294.552C330.575 295.357 330.796 296.436 330.796 297.787V309H328.182V306.695H328.049C327.871 307.065 327.576 307.46 327.162 307.881C326.749 308.302 326.198 308.66 325.512 308.956C324.825 309.251 323.986 309.399 322.996 309.399ZM323.395 307.05C324.429 307.05 325.301 306.847 326.01 306.441C326.727 306.034 327.266 305.51 327.628 304.867C327.997 304.225 328.182 303.549 328.182 302.84V300.447C328.071 300.58 327.827 300.701 327.45 300.812C327.081 300.916 326.653 301.008 326.165 301.089C325.685 301.163 325.216 301.23 324.758 301.289C324.308 301.34 323.942 301.385 323.661 301.422C322.982 301.51 322.346 301.654 321.756 301.854C321.172 302.046 320.699 302.337 320.337 302.729C319.983 303.113 319.806 303.637 319.806 304.302C319.806 305.211 320.142 305.898 320.814 306.363C321.493 306.821 322.354 307.05 323.395 307.05ZM335.569 309V291.982H338.095V294.552H338.272C338.583 293.71 339.144 293.027 339.956 292.503C340.769 291.978 341.685 291.716 342.704 291.716C342.896 291.716 343.136 291.72 343.424 291.727C343.712 291.734 343.93 291.745 344.078 291.76V294.419C343.989 294.397 343.786 294.364 343.469 294.32C343.158 294.268 342.83 294.242 342.483 294.242C341.655 294.242 340.917 294.416 340.267 294.763C339.624 295.103 339.114 295.575 338.738 296.181C338.368 296.779 338.184 297.462 338.184 298.231V309H335.569ZM352.186 309.399C351.107 309.399 350.128 309.196 349.249 308.789C348.37 308.376 347.672 307.781 347.155 307.006C346.638 306.223 346.38 305.277 346.38 304.169C346.38 303.194 346.572 302.404 346.956 301.798C347.34 301.185 347.853 300.705 348.496 300.358C349.139 300.011 349.848 299.752 350.623 299.582C351.406 299.405 352.193 299.265 352.983 299.161C354.017 299.028 354.856 298.929 355.498 298.862C356.148 298.788 356.621 298.666 356.916 298.497C357.219 298.327 357.371 298.031 357.371 297.61V297.522C357.371 296.428 357.072 295.579 356.473 294.973C355.882 294.368 354.985 294.065 353.781 294.065C352.533 294.065 351.554 294.338 350.845 294.885C350.136 295.431 349.637 296.015 349.349 296.635L346.867 295.749C347.311 294.715 347.901 293.91 348.64 293.334C349.386 292.75 350.199 292.344 351.078 292.115C351.964 291.878 352.836 291.76 353.692 291.76C354.239 291.76 354.867 291.827 355.576 291.96C356.292 292.085 356.983 292.347 357.648 292.746C358.32 293.145 358.878 293.747 359.321 294.552C359.764 295.357 359.986 296.436 359.986 297.787V309H357.371V306.695H357.238C357.061 307.065 356.765 307.46 356.351 307.881C355.938 308.302 355.388 308.66 354.701 308.956C354.014 309.251 353.175 309.399 352.186 309.399ZM352.584 307.05C353.618 307.05 354.49 306.847 355.199 306.441C355.916 306.034 356.455 305.51 356.817 304.867C357.186 304.225 357.371 303.549 357.371 302.84V300.447C357.26 300.58 357.016 300.701 356.639 300.812C356.27 300.916 355.842 301.008 355.354 301.089C354.874 301.163 354.405 301.23 353.947 301.289C353.497 301.34 353.131 301.385 352.85 301.422C352.171 301.51 351.536 301.654 350.945 301.854C350.361 302.046 349.888 302.337 349.526 302.729C349.172 303.113 348.995 303.637 348.995 304.302C348.995 305.211 349.331 305.898 350.003 306.363C350.682 306.821 351.543 307.05 352.584 307.05ZM380.447 309.355C378.91 309.355 377.562 308.989 376.403 308.258C375.25 307.526 374.349 306.503 373.699 305.189C373.057 303.874 372.735 302.337 372.735 300.58C372.735 298.807 373.057 297.259 373.699 295.937C374.349 294.615 375.25 293.588 376.403 292.857C377.562 292.126 378.91 291.76 380.447 291.76C381.983 291.76 383.327 292.126 384.48 292.857C385.639 293.588 386.54 294.615 387.183 295.937C387.833 297.259 388.158 298.807 388.158 300.58C388.158 302.337 387.833 303.874 387.183 305.189C386.54 306.503 385.639 307.526 384.48 308.258C383.327 308.989 381.983 309.355 380.447 309.355ZM380.447 307.006C381.614 307.006 382.574 306.707 383.327 306.108C384.081 305.51 384.638 304.723 385 303.748C385.362 302.773 385.543 301.717 385.543 300.58C385.543 299.442 385.362 298.382 385 297.4C384.638 296.417 384.081 295.623 383.327 295.018C382.574 294.412 381.614 294.109 380.447 294.109C379.28 294.109 378.319 294.412 377.566 295.018C376.813 295.623 376.255 296.417 375.893 297.4C375.531 298.382 375.35 299.442 375.35 300.58C375.35 301.717 375.531 302.773 375.893 303.748C376.255 304.723 376.813 305.51 377.566 306.108C378.319 306.707 379.28 307.006 380.447 307.006ZM402.874 302.042V291.982H405.489V309H402.874V306.119H402.697C402.298 306.984 401.678 307.718 400.836 308.324C399.994 308.922 398.93 309.222 397.645 309.222C396.581 309.222 395.636 308.989 394.809 308.524C393.981 308.051 393.331 307.342 392.859 306.396C392.386 305.443 392.149 304.243 392.149 302.795V291.982H394.764V302.618C394.764 303.859 395.111 304.849 395.806 305.587C396.507 306.326 397.401 306.695 398.487 306.695C399.137 306.695 399.798 306.529 400.47 306.197C401.15 305.864 401.718 305.355 402.176 304.668C402.642 303.981 402.874 303.106 402.874 302.042ZM424.194 291.982L417.901 309H415.242L408.949 291.982H411.785L416.483 305.543H416.66L421.358 291.982H424.194ZM427.646 309V291.982H430.26V309H427.646ZM428.975 289.145C428.465 289.145 428.026 288.972 427.657 288.625C427.295 288.278 427.114 287.86 427.114 287.373C427.114 286.885 427.295 286.468 427.657 286.121C428.026 285.774 428.465 285.6 428.975 285.6C429.485 285.6 429.921 285.774 430.282 286.121C430.652 286.468 430.836 286.885 430.836 287.373C430.836 287.86 430.652 288.278 430.282 288.625C429.921 288.972 429.485 289.145 428.975 289.145ZM435.049 309V291.982H437.576V294.552H437.753C438.063 293.71 438.624 293.027 439.437 292.503C440.249 291.978 441.165 291.716 442.185 291.716C442.377 291.716 442.617 291.72 442.905 291.727C443.193 291.734 443.411 291.745 443.559 291.76V294.419C443.47 294.397 443.267 294.364 442.949 294.32C442.639 294.268 442.31 294.242 441.963 294.242C441.136 294.242 440.397 294.416 439.747 294.763C439.105 295.103 438.595 295.575 438.218 296.181C437.849 296.779 437.664 297.462 437.664 298.231V309H435.049Z" fill="white"></path><path id="texto-1" d="M137.982 56.1119C137.909 55.2994 137.58 54.6679 136.996 54.2173C136.42 53.7594 135.597 53.5304 134.526 53.5304C133.816 53.5304 133.226 53.6227 132.753 53.8074C132.28 53.992 131.926 54.2469 131.689 54.5719C131.453 54.8895 131.331 55.2551 131.324 55.6687C131.309 56.0085 131.375 56.3077 131.523 56.5662C131.678 56.8247 131.9 57.0537 132.188 57.2531C132.483 57.4452 132.838 57.6151 133.251 57.7628C133.665 57.9105 134.13 58.0398 134.647 58.1506L136.597 58.5937C137.72 58.8375 138.71 59.1625 139.567 59.5687C140.431 59.975 141.155 60.4588 141.738 61.0202C142.329 61.5815 142.776 62.2278 143.079 62.9591C143.382 63.6903 143.537 64.5102 143.544 65.4187C143.537 66.8517 143.175 68.0815 142.459 69.1082C141.742 70.1349 140.712 70.9216 139.367 71.4682C138.03 72.0148 136.416 72.2881 134.526 72.2881C132.627 72.2881 130.973 72.0037 129.562 71.4349C128.151 70.8662 127.054 70.002 126.271 68.8423C125.488 67.6827 125.086 66.2165 125.064 64.4437H130.315C130.36 65.175 130.555 65.7844 130.903 66.2719C131.25 66.7594 131.726 67.1287 132.332 67.3798C132.945 67.631 133.654 67.7565 134.459 67.7565C135.198 67.7565 135.826 67.6568 136.343 67.4574C136.867 67.258 137.27 66.981 137.55 66.6264C137.831 66.2719 137.975 65.8656 137.982 65.4077C137.975 64.9793 137.842 64.6136 137.584 64.3108C137.325 64.0006 136.926 63.7347 136.387 63.5131C135.855 63.2841 135.176 63.0736 134.348 62.8815L131.977 62.3276C130.013 61.877 128.465 61.1494 127.335 60.1449C126.205 59.133 125.643 57.7665 125.651 56.0455C125.643 54.642 126.02 53.4122 126.781 52.356C127.542 51.2997 128.594 50.4761 129.939 49.8852C131.283 49.2943 132.816 48.9989 134.537 48.9989C136.295 48.9989 137.82 49.298 139.113 49.8963C140.413 50.4872 141.421 51.3182 142.137 52.3892C142.854 53.4602 143.219 54.7011 143.234 56.1119H137.982ZM146.314 72V49.3091H162.136V53.7631H151.799V58.4165H161.327V62.8815H151.799V67.546H162.136V72H146.314ZM179.298 49.3091H184.771V63.9452C184.771 65.6366 184.369 67.1102 183.564 68.3659C182.759 69.6142 181.636 70.5818 180.195 71.2687C178.755 71.9483 177.082 72.2881 175.176 72.2881C173.249 72.2881 171.564 71.9483 170.124 71.2687C168.684 70.5818 167.565 69.6142 166.767 68.3659C165.969 67.1102 165.57 65.6366 165.57 63.9452V49.3091H171.055V63.4687C171.055 64.2517 171.225 64.9497 171.564 65.5628C171.912 66.1759 172.395 66.656 173.016 67.0031C173.636 67.3503 174.357 67.5239 175.176 67.5239C175.996 67.5239 176.713 67.3503 177.326 67.0031C177.946 66.656 178.43 66.1759 178.777 65.5628C179.124 64.9497 179.298 64.2517 179.298 63.4687V49.3091ZM200.064 49.3091L205.138 65.9284H205.327L210.401 49.3091H216.539L208.883 72H201.582L193.926 49.3091H200.064ZM224.467 49.3091V72H218.982V49.3091H224.467ZM219.869 47.1486L222.107 42.1517H226.904L223.558 47.1486H219.869ZM236.297 72H227.91V49.3091H236.286C238.598 49.3091 240.588 49.7634 242.258 50.6719C243.934 51.573 245.227 52.873 246.135 54.5719C247.044 56.2634 247.498 58.2872 247.498 60.6435C247.498 63.0071 247.044 65.0384 246.135 66.7372C245.234 68.4361 243.945 69.7398 242.269 70.6483C240.592 71.5494 238.601 72 236.297 72ZM233.394 67.3244H236.086C237.357 67.3244 238.431 67.1102 239.31 66.6818C240.197 66.246 240.865 65.5406 241.316 64.5656C241.774 63.5832 242.003 62.2759 242.003 60.6435C242.003 59.0111 241.774 57.7111 241.316 56.7435C240.858 55.7685 240.182 55.0668 239.288 54.6384C238.402 54.2026 237.309 53.9847 236.009 53.9847H233.394V67.3244ZM250.7 72V49.3091H266.522V53.7631H256.185V58.4165H265.713V62.8815H256.185V67.546H266.522V72H250.7ZM291.373 60.6545C291.373 63.1511 290.893 65.2673 289.933 67.0031C288.973 68.7389 287.673 70.0574 286.033 70.9585C284.4 71.8597 282.569 72.3102 280.537 72.3102C278.499 72.3102 276.663 71.856 275.031 70.9474C273.398 70.0389 272.102 68.7205 271.142 66.992C270.189 65.2562 269.713 63.1437 269.713 60.6545C269.713 58.158 270.189 56.0418 271.142 54.306C272.102 52.5702 273.398 51.2517 275.031 50.3506C276.663 49.4494 278.499 48.9989 280.537 48.9989C282.569 48.9989 284.4 49.4494 286.033 50.3506C287.673 51.2517 288.973 52.5702 289.933 54.306C290.893 56.0418 291.373 58.158 291.373 60.6545ZM285.767 60.6545C285.767 59.1773 285.556 57.929 285.135 56.9097C284.722 55.8903 284.123 55.1185 283.34 54.594C282.565 54.0696 281.631 53.8074 280.537 53.8074C279.452 53.8074 278.517 54.0696 277.734 54.594C276.951 55.1185 276.349 55.8903 275.928 56.9097C275.515 57.929 275.308 59.1773 275.308 60.6545C275.308 62.1318 275.515 63.3801 275.928 64.3994C276.349 65.4187 276.951 66.1906 277.734 66.7151C278.517 67.2395 279.452 67.5017 280.537 67.5017C281.631 67.5017 282.565 67.2395 283.34 66.7151C284.123 66.1906 284.722 65.4187 285.135 64.3994C285.556 63.3801 285.767 62.1318 285.767 60.6545ZM310.496 49.3091H315.903V64.9977C315.896 66.4676 315.545 67.7528 314.851 68.8534C314.156 69.9466 313.196 70.796 311.97 71.4017C310.751 72.0074 309.34 72.3102 307.738 72.3102C306.319 72.3102 305.031 72.0628 303.871 71.5679C302.719 71.073 301.799 70.3048 301.112 69.2634C300.433 68.2219 300.096 66.8886 300.104 65.2636H305.566C305.588 65.8472 305.699 66.3457 305.898 66.7594C306.105 67.1656 306.39 67.4722 306.752 67.679C307.114 67.8858 307.546 67.9892 308.048 67.9892C308.572 67.9892 309.015 67.8784 309.377 67.6568C309.739 67.4278 310.013 67.0918 310.197 66.6486C310.389 66.2054 310.489 65.6551 310.496 64.9977V49.3091ZM324.254 72H318.36L326.016 49.3091H333.318L340.974 72H335.079L329.75 55.0261H329.573L324.254 72ZM323.468 63.0699H335.788V67.2358H323.468V63.0699ZM327.8 47.1486L330.038 42.1517H334.835L331.489 47.1486H327.8ZM370.717 57.5301H365.177C365.103 56.9614 364.951 56.448 364.723 55.9901C364.494 55.5321 364.191 55.1406 363.814 54.8156C363.437 54.4906 362.99 54.2432 362.473 54.0733C361.964 53.896 361.399 53.8074 360.778 53.8074C359.678 53.8074 358.728 54.077 357.931 54.6162C357.14 55.1554 356.531 55.9347 356.103 56.954C355.682 57.9733 355.471 59.2068 355.471 60.6545C355.471 62.1614 355.685 63.4244 356.114 64.4437C356.55 65.4557 357.159 66.2202 357.942 66.7372C358.732 67.2469 359.667 67.5017 360.745 67.5017C361.351 67.5017 361.901 67.4241 362.396 67.269C362.898 67.1139 363.338 66.8886 363.714 66.5932C364.098 66.2903 364.412 65.9247 364.656 65.4963C364.907 65.0605 365.081 64.5693 365.177 64.0227L370.717 64.056C370.621 65.0605 370.329 66.0503 369.841 67.0253C369.361 68.0003 368.7 68.8903 367.858 69.6955C367.016 70.4932 365.989 71.1284 364.778 71.6011C363.574 72.0739 362.193 72.3102 360.634 72.3102C358.581 72.3102 356.742 71.8597 355.117 70.9585C353.499 70.05 352.221 68.7278 351.283 66.992C350.345 65.2562 349.876 63.1437 349.876 60.6545C349.876 58.158 350.352 56.0418 351.305 54.306C352.258 52.5702 353.547 51.2517 355.172 50.3506C356.797 49.4494 358.618 48.9989 360.634 48.9989C362.008 48.9989 363.278 49.1909 364.446 49.575C365.613 49.9517 366.639 50.5057 367.526 51.2369C368.412 51.9608 369.132 52.8509 369.686 53.9071C370.24 54.9634 370.584 56.171 370.717 57.5301ZM395.272 60.6545C395.272 63.1511 394.791 65.2673 393.831 67.0031C392.871 68.7389 391.571 70.0574 389.931 70.9585C388.299 71.8597 386.467 72.3102 384.436 72.3102C382.397 72.3102 380.562 71.856 378.929 70.9474C377.297 70.0389 376.001 68.7205 375.04 66.992C374.087 65.2562 373.611 63.1437 373.611 60.6545C373.611 58.158 374.087 56.0418 375.04 54.306C376.001 52.5702 377.297 51.2517 378.929 50.3506C380.562 49.4494 382.397 48.9989 384.436 48.9989C386.467 48.9989 388.299 49.4494 389.931 50.3506C391.571 51.2517 392.871 52.5702 393.831 54.306C394.791 56.0418 395.272 58.158 395.272 60.6545ZM389.665 60.6545C389.665 59.1773 389.455 57.929 389.034 56.9097C388.62 55.8903 388.022 55.1185 387.239 54.594C386.463 54.0696 385.529 53.8074 384.436 53.8074C383.35 53.8074 382.416 54.0696 381.633 54.594C380.85 55.1185 380.248 55.8903 379.827 56.9097C379.413 57.929 379.206 59.1773 379.206 60.6545C379.206 62.1318 379.413 63.3801 379.827 64.3994C380.248 65.4187 380.85 66.1906 381.633 66.7151C382.416 67.2395 383.35 67.5017 384.436 67.5017C385.529 67.5017 386.463 67.2395 387.239 66.7151C388.022 66.1906 388.62 65.4187 389.034 64.3994C389.455 63.3801 389.665 62.1318 389.665 60.6545ZM398.474 49.3091H405.265L411.027 63.358H411.293L417.054 49.3091H423.846V72H418.505V58.0619H418.317L412.866 71.856H409.453L404.002 57.9844H403.814V72H398.474V49.3091ZM427.267 72V49.3091H443.088V53.7631H432.751V58.4165H442.279V62.8815H432.751V67.546H443.088V72H427.267ZM467.12 57.5301H461.58C461.506 56.9614 461.355 56.448 461.126 55.9901C460.897 55.5321 460.594 55.1406 460.217 54.8156C459.84 54.4906 459.394 54.2432 458.877 54.0733C458.367 53.896 457.802 53.8074 457.181 53.8074C456.081 53.8074 455.132 54.077 454.334 54.6162C453.544 55.1554 452.934 55.9347 452.506 56.954C452.085 57.9733 451.874 59.2068 451.874 60.6545C451.874 62.1614 452.088 63.4244 452.517 64.4437C452.953 65.4557 453.562 66.2202 454.345 66.7372C455.135 67.2469 456.07 67.5017 457.148 67.5017C457.754 67.5017 458.304 67.4241 458.799 67.269C459.301 67.1139 459.741 66.8886 460.117 66.5932C460.502 66.2903 460.815 65.9247 461.059 65.4963C461.31 65.0605 461.484 64.5693 461.58 64.0227L467.12 64.056C467.024 65.0605 466.732 66.0503 466.244 67.0253C465.764 68.0003 465.103 68.8903 464.261 69.6955C463.419 70.4932 462.392 71.1284 461.181 71.6011C459.977 72.0739 458.596 72.3102 457.037 72.3102C454.984 72.3102 453.145 71.8597 451.52 70.9585C449.902 70.05 448.624 68.7278 447.686 66.992C446.748 65.2562 446.279 63.1437 446.279 60.6545C446.279 58.158 446.755 56.0418 447.708 54.306C448.661 52.5702 449.95 51.2517 451.575 50.3506C453.2 49.4494 455.021 48.9989 457.037 48.9989C458.411 48.9989 459.682 49.1909 460.849 49.575C462.016 49.9517 463.042 50.5057 463.929 51.2369C464.815 51.9608 465.535 52.8509 466.089 53.9071C466.643 54.9634 466.987 56.171 467.12 57.5301ZM455.852 71.8781H458.023L457.846 72.8753C458.659 72.9935 459.309 73.2852 459.796 73.7506C460.284 74.2233 460.531 74.8364 460.538 75.5898C460.546 76.742 459.996 77.6506 458.888 78.3153C457.787 78.9875 456.254 79.3236 454.29 79.3236L454.267 77.0966C455.279 77.0966 456.062 76.9821 456.616 76.7531C457.17 76.5241 457.458 76.177 457.48 75.7116C457.503 75.2832 457.336 74.9398 456.982 74.6813C456.627 74.4301 456.077 74.2565 455.331 74.1605L455.852 71.8781ZM491.675 60.6545C491.675 63.1511 491.195 65.2673 490.234 67.0031C489.274 68.7389 487.974 70.0574 486.334 70.9585C484.702 71.8597 482.87 72.3102 480.839 72.3102C478.8 72.3102 476.965 71.856 475.332 70.9474C473.7 70.0389 472.404 68.7205 471.443 66.992C470.491 65.2562 470.014 63.1437 470.014 60.6545C470.014 58.158 470.491 56.0418 471.443 54.306C472.404 52.5702 473.7 51.2517 475.332 50.3506C476.965 49.4494 478.8 48.9989 480.839 48.9989C482.87 48.9989 484.702 49.4494 486.334 50.3506C487.974 51.2517 489.274 52.5702 490.234 54.306C491.195 56.0418 491.675 58.158 491.675 60.6545ZM486.068 60.6545C486.068 59.1773 485.858 57.929 485.437 56.9097C485.023 55.8903 484.425 55.1185 483.642 54.594C482.866 54.0696 481.932 53.8074 480.839 53.8074C479.753 53.8074 478.819 54.0696 478.036 54.594C477.253 55.1185 476.651 55.8903 476.23 56.9097C475.816 57.929 475.609 59.1773 475.609 60.6545C475.609 62.1318 475.816 63.3801 476.23 64.3994C476.651 65.4187 477.253 66.1906 478.036 66.7151C478.819 67.2395 479.753 67.5017 480.839 67.5017C481.932 67.5017 482.866 67.2395 483.642 66.7151C484.425 66.1906 485.023 65.4187 485.437 64.3994C485.858 63.3801 486.068 62.1318 486.068 60.6545ZM508.604 49.3091H514.078V63.9452C514.078 65.6366 513.675 67.1102 512.87 68.3659C512.065 69.6142 510.942 70.5818 509.502 71.2687C508.061 71.9483 506.388 72.2881 504.483 72.2881C502.555 72.2881 500.871 71.9483 499.43 71.2687C497.99 70.5818 496.871 69.6142 496.073 68.3659C495.276 67.1102 494.877 65.6366 494.877 63.9452V49.3091H500.361V63.4687C500.361 64.2517 500.531 64.9497 500.871 65.5628C501.218 66.1759 501.702 66.656 502.322 67.0031C502.943 67.3503 503.663 67.5239 504.483 67.5239C505.303 67.5239 506.019 67.3503 506.632 67.0031C507.253 66.656 507.736 66.1759 508.084 65.5628C508.431 64.9497 508.604 64.2517 508.604 63.4687V49.3091Z" fill="white"></path></g></svg>